<?xml version="1.0" encoding="UTF-8" standalone="no"?>
<svg
   xmlns:dc="http://purl.org/dc/elements/1.1/"
   xmlns:cc="http://creativecommons.org/ns#"
   xmlns:rdf="http://www.w3.org/1999/02/22-rdf-syntax-ns#"
   xmlns:svg="http://www.w3.org/2000/svg"
   xmlns="http://www.w3.org/2000/svg"
   xmlns:sodipodi="http://sodipodi.sourceforge.net/DTD/sodipodi-0.dtd"
   xmlns:inkscape="http://www.inkscape.org/namespaces/inkscape"
   id="svg3689"
   version="1.1"
   inkscape:version="0.91 r13725"
   sodipodi:docname="3511-3000.svg">
  <metadata
     id="metadata3697">
    <rdf:RDF>
      <cc:Work
         rdf:about="">
        <dc:format>image/svg+xml</dc:format>
        <dc:type
           rdf:resource="http://purl.org/dc/dcmitype/StillImage" />
        <dc:title></dc:title>
      </cc:Work>
    </rdf:RDF>
  </metadata>
  <defs
     id="defs3695" />
  <sodipodi:namedview
     pagecolor="#ffffff"
     bordercolor="#666666"
     borderopacity="1"
     objecttolerance="10"
     gridtolerance="10"
     guidetolerance="10"
     inkscape:pageopacity="0"
     inkscape:pageshadow="2"
     inkscape:window-width="3160"
     inkscape:window-height="1730"
     id="namedview3693"
     showgrid="false"
     inkscape:zoom="63.48"
     inkscape:cx="49.346105"
     inkscape:cy="-5.8037554"
     inkscape:window-x="15"
     inkscape:window-y="45"
     inkscape:window-maximized="0"
     inkscape:current-layer="layer4" />
  <path
     class="st0"
     d="m 49.336143,98.259125 c 0.456662,0.651825 0.914334,1.295204 1.865963,1.166771 0.109688,-0.01481 0.288197,0.03893 0.342415,0.121528 0.683747,1.041706 1.652661,0.766446 2.624783,0.631116 0.488354,-0.068 1.001907,0.0654 1.498295,0.029 0.506256,-0.0371 1.003788,-0.18164 1.508343,-0.25796 0.282566,-0.04275 0.651619,-0.157151 0.835071,-0.02914 0.180252,0.1258 0.200516,0.51365 0.241963,0.79376 0.02658,0.17968 -0.0052,0.38251 -0.06307,0.55776 -0.294777,0.89317 0.19513,1.13785 0.953816,1.31338 1.885303,0.43621 3.755508,0.93784 5.630424,1.41845 0.117241,0.03 0.222893,0.10527 0.331383,0.15823 -0.540321,1.5903 -1.14642,1.79572 -2.51601,1.06908 -0.700314,-0.37155 -1.527741,-0.50352 -2.29768,-0.74372 -0.357781,-0.23703 -0.775688,-0.73339 -1.06313,-0.66677 -1.331482,0.30855 -2.47253,-0.12488 -3.630417,-0.64521 -0.835693,-0.37554 -2.651092,0.11897 -3.263107,0.77569 -1.048385,1.12498 -1.702835,1.9226 -2.798759,3.00152 -0.361634,-1.54099 -1.228077,-1.44546 -1.212146,-1.84021 -0.661448,-0.0482 1.503727,-0.71303 1.45026,-0.8633 -0.14011,-0.39382 -0.481617,-0.90731 -0.834759,-0.99261 -0.654842,-0.15817 -1.375156,-0.0453 -2.217262,-0.0453 0.180092,-0.42265 0.386181,-0.8827 0.573288,-1.35035 0.384365,-0.96066 0.715698,-1.945895 1.16103,-2.876918 0.14862,-0.310707 0.578178,-0.487045 0.879306,-0.724797 z"
     id="path3691"
     style="opacity:0.17700004;stroke:#000000;stroke-opacity:1"
     inkscape:connector-curvature="0"
     sodipodi:nodetypes="cccsccccccccsccsscccscssc" />
  <g
     inkscape:groupmode="layer"
     id="layer3"
     inkscape:label="Layer 1" />
  <g
     inkscape:groupmode="layer"
     id="layer4"
     inkscape:label="Layer 2">
    <path
       style="opacity:0.17700004;stroke:#000000;stroke-opacity:1"
       id="path4547"
       d="m 46.194518,107.38165 c -0.148018,-0.12617 -0.205669,-0.65313 -0.104217,-0.72957 0.682125,-0.51387 0.966692,-0.75318 1.702165,-1.19031 0.676653,-0.75448 3.266166,3.44702 -1.597948,1.91988 z"
       class="st0"
       inkscape:connector-curvature="0"
       sodipodi:nodetypes="cccc" />
  </g>
</svg>
